<?xml version="1.0" encoding="UTF-8"?>
<svg id="Calque_2" data-name="Calque 2" xmlns="http://www.w3.org/2000/svg" viewBox="0 0 121.49 127.21">
  <defs>
    <style>
      .cls-1 {
        fill: #3cc;
      }

      .cls-1, .cls-2 {
        stroke-width: 0px;
      }

      .cls-2 {
        fill: #000;
      }
    </style>
  </defs>
  <g id="Calque_1-2" data-name="Calque 1">
    <g>
      <path class="cls-1" d="M87.29,10.35c1.29.38,2.72.32,4.09.34,3.25.05,6.5-.11,9.74.05,5.43.28,8.48,3.47,8.56,8.83.06,3.75-.37,7.54.09,11.22.32,2.58,1.29,5.37,2.82,7.44,2.15,2.93,5.47,2.49,7.36-.68.85-1.43,1.36-3.26,1.42-4.93.16-4.49.18-9-.06-13.48C120.63,7.01,113.56.29,101.4.02c-1.37-.03-2.75,0-4.12,0,0,.06,0,.12,0,.18-3.12,0-6.25-.16-9.36.05-2.73.19-4.87,1.65-5.16,4.54-.32,3.14,1.82,4.78,4.53,5.58Z"/>
      <path class="cls-1" d="M.19,24.93c0,3.12-.16,6.25.05,9.36.19,2.73,1.65,4.87,4.54,5.16,3.14.32,4.78-1.82,5.58-4.53.38-1.29.32-2.72.34-4.09.05-3.25-.11-6.5.05-9.74.28-5.43,3.47-8.48,8.83-8.56,3.75-.06,7.54.37,11.22-.09,2.58-.32,5.37-1.29,7.44-2.82,2.93-2.15,2.49-5.47-.68-7.36-1.43-.85-3.26-1.36-4.93-1.42-4.49-.16-9-.18-13.48.06C7.01,1.59.29,8.65.02,20.81c-.03,1.37,0,2.75,0,4.12.06,0,.12,0,.18,0Z"/>
      <path class="cls-1" d="M34.2,116.86c-1.29-.38-2.72-.32-4.09-.34-3.25-.05-6.5.11-9.74-.05-5.43-.28-8.48-3.47-8.56-8.83-.06-3.75.37-7.54-.09-11.22-.32-2.58-1.29-5.37-2.82-7.44-2.15-2.93-5.47-2.49-7.36.68-.85,1.43-1.36,3.26-1.42,4.93-.16,4.49-.18,9,.06,13.48.67,12.14,7.74,18.86,19.9,19.14,1.37.03,2.75,0,4.12,0,0-.06,0-.12,0-.18,3.12,0,6.25.16,9.36-.05,2.73-.19,4.87-1.65,5.16-4.54.32-3.14-1.82-4.78-4.53-5.58Z"/>
      <path class="cls-1" d="M121.3,102.28c0-3.12.16-6.25-.05-9.36-.19-2.73-1.65-4.87-4.54-5.16-3.14-.32-4.78,1.82-5.58,4.53-.38,1.29-.32,2.72-.34,4.09-.05,3.25.11,6.5-.05,9.74-.28,5.43-3.47,8.48-8.83,8.56-3.75.06-7.54-.37-11.22.09-2.58.32-5.37,1.29-7.44,2.82-2.93,2.15-2.49,5.47.68,7.36,1.43.85,3.26,1.36,4.93,1.42,4.49.16,9,.18,13.48-.06,12.14-.67,18.86-7.74,19.14-19.9.03-1.37,0-2.75,0-4.12-.06,0-.12,0-.18,0Z"/>
      <path class="cls-2" d="M107.16,63.1c-.5-26.13-21.17-46.57-46.75-46.22-25.76.36-46.72,21.91-46.07,47.38.66,26.19,21.63,46.55,47.43,46.05,25.45-.5,45.88-21.74,45.39-47.22ZM63.41,98.35c-20.14.9-36.29-13.57-37.14-33.46-.76-17.88,12.78-35.66,34.19-36.01,18.14-.74,34.21,14.75,35.07,33.82.84,18.54-13.84,34.83-32.12,35.65Z"/>
      <path class="cls-2" d="M60.74,38.94c-8.17,0-15.79,4.04-20.39,10.79-2.8,4.09-4.28,8.89-4.28,13.87s1.48,9.78,4.28,13.87c4.6,6.76,12.22,10.79,20.39,10.79s15.79-4.04,20.39-10.79c2.8-4.09,4.28-8.89,4.28-13.87s-1.48-9.78-4.28-13.87c-4.6-6.76-12.22-10.79-20.39-10.79ZM60.74,43.25c1.84,0,3.79,2.05,5.31,5.53h-10.62c1.52-3.49,3.47-5.53,5.31-5.53ZM53.96,53.1h13.55c.66,2.58,1.07,5.44,1.21,8.35h-15.96c.13-2.9.54-5.76,1.21-8.35ZM43.31,53.1h6.19c-.58,2.59-.94,5.44-1.06,8.35h-7.94c.32-2.95,1.28-5.81,2.81-8.35ZM40.5,65.76h7.94c.12,2.91.48,5.76,1.06,8.35h-6.19c-1.54-2.55-2.5-5.42-2.81-8.35ZM46.8,78.43h3.94c.49,1.37,1.06,2.62,1.69,3.74-2.07-.93-3.98-2.19-5.63-3.74ZM50.74,48.79h-3.94c1.65-1.54,3.56-2.81,5.63-3.74-.63,1.12-1.19,2.37-1.69,3.74ZM60.74,83.96c-1.84,0-3.79-2.05-5.31-5.53h10.62c-1.52,3.49-3.47,5.53-5.31,5.53ZM67.52,74.11h-13.56c-.66-2.59-1.07-5.45-1.21-8.35h15.97c-.13,2.9-.54,5.76-1.21,8.35ZM74.69,48.79h-3.94c-.49-1.37-1.06-2.62-1.69-3.74,2.07.93,3.98,2.19,5.63,3.74ZM69.06,82.16c.62-1.11,1.19-2.36,1.68-3.73h3.94c-1.65,1.54-3.55,2.81-5.62,3.73ZM78.18,74.11h-6.19c.58-2.59.94-5.44,1.06-8.35h7.94c-.32,2.95-1.28,5.81-2.81,8.35ZM73.05,61.45c-.12-2.91-.48-5.76-1.06-8.35h6.19c1.54,2.55,2.5,5.42,2.81,8.35h-7.94Z"/>
    </g>
  </g>
</svg>